<svg id="Layer_1" data-name="Layer 1" xmlns="http://www.w3.org/2000/svg" viewBox="0 0 101.2 138.6"><defs><style>.cls-1{fill:none;}.cls-1,.cls-2{stroke:#000;stroke-miterlimit:10;stroke-width:2px;}.cls-2{fill:#fff;}</style></defs><title>Web Icons</title><path class="cls-1" d="M51.6,23.7C51.6,13.3,57.9,1,71.1,1,90.2,1,90.6,19.4,90.6,19.4"/><path class="cls-2" d="M96.7,13.8H4.4A3.37,3.37,0,0,0,1,17.2v117a3.37,3.37,0,0,0,3.4,3.4h9.5a4.42,4.42,0,0,1,4.4-3.7H82.9a4.5,4.5,0,0,1,4.4,3.7h9.5a3.37,3.37,0,0,0,3.4-3.4V17.2A3.52,3.52,0,0,0,96.7,13.8Zm-4.6,96.3a1.9,1.9,0,0,1-1.9,1.9H10.8a1.9,1.9,0,0,1-1.9-1.9V22.2a1.9,1.9,0,0,1,1.9-1.9H90.2a1.9,1.9,0,0,1,1.9,1.9Z"/><rect class="cls-2" x="26.2" y="20.3" width="3.8" height="91.6"/><rect class="cls-2" x="71.2" y="20.3" width="3.8" height="91.6"/><rect class="cls-2" x="8.9" y="26.83" width="83.2" height="3.8"/><rect class="cls-2" x="41.6" y="32.1" width="18.3" height="3.3"/><rect class="cls-2" x="40.5" y="23.7" width="20.4" height="8.7"/><polygon class="cls-1" points="50.7 42.5 43.2 35.9 58.2 35.9 50.7 42.5"/><rect class="cls-2" x="12.9" y="48" width="75.7" height="2.7"/><line class="cls-1" x1="50.7" y1="42.5" x2="50.7" y2="45.7"/><line class="cls-1" x1="36" y1="46.2" x2="65.5" y2="46.2"/><path class="cls-1" d="M65.3,127.2H35.8a2.43,2.43,0,0,1-2.4-2.4v-6.1a2.43,2.43,0,0,1,2.4-2.4H65.3a2.43,2.43,0,0,1,2.4,2.4v6.1A2.43,2.43,0,0,1,65.3,127.2Z"/><line class="cls-1" x1="41.6" y1="116.3" x2="36.5" y2="121.4"/><line class="cls-1" x1="45.4" y1="116.3" x2="37.3" y2="124.5"/><line class="cls-1" x1="49.3" y1="116.3" x2="44.2" y2="121.5"/><circle class="cls-1" cx="80.2" cy="121.7" r="4.6"/></svg>