<svg id="Layer_1" data-name="Layer 1" xmlns="http://www.w3.org/2000/svg" viewBox="0 0 129.67 113.27"><defs><style>.cls-1{fill:none;}.cls-1,.cls-2{stroke:#231f20;stroke-miterlimit:10;stroke-width:2px;}.cls-2{fill:#fff;}</style></defs><title>Web Icons</title><path class="cls-1" d="M10.48,94.13v14.55a3.61,3.61,0,0,0,3.6,3.6H42.33v-2.45a2.31,2.31,0,0,1,2.3-2.3H87.41a2.31,2.31,0,0,1,2.3,2.3v2.45h25.88a3.61,3.61,0,0,0,3.6-3.6V94.13"/><rect class="cls-1" x="1" y="70.63" width="127.67" height="23.5" rx="2.13" ry="2.13"/><path class="cls-1" d="M35.24,70.63v-52a3.61,3.61,0,0,0-3.6-3.6h-16V48a3.61,3.61,0,0,1-3.6,3.6H6.83v19"/><rect class="cls-1" x="35.24" y="22.96" width="59.19" height="6.67"/><path class="cls-1" d="M94.43,70.63v-52A3.61,3.61,0,0,1,98,15h16V48a3.61,3.61,0,0,0,3.6,3.6h5.23v19"/><polygon class="cls-2" points="69.17 18.69 69.17 32.95 64.84 38.89 60.5 32.95 60.5 18.69 69.17 18.69"/><line class="cls-1" x1="64.83" y1="38.06" x2="64.83" y2="44.85"/><circle class="cls-1" cx="106.18" cy="82.1" r="2.97"/><circle class="cls-1" cx="116.22" cy="82.1" r="2.97"/><rect class="cls-1" x="46.66" y="76.61" width="36.35" height="11.54" rx="2.38" ry="2.38"/><line class="cls-1" x1="55.3" y1="76.61" x2="49.91" y2="81.99"/><line class="cls-1" x1="59.41" y1="76.61" x2="50.74" y2="85.27"/><line class="cls-1" x1="63.54" y1="76.61" x2="58.06" y2="82.08"/><line class="cls-1" x1="28.55" y1="15.04" x2="28.55" y2="70.63"/><line class="cls-1" x1="101.1" y1="15.04" x2="101.1" y2="70.63"/><path class="cls-1" d="M64.83,18.69C64.83,9.81,71.51,1,85.51,1c20.31,0,20.67,14,20.67,14"/></svg>