<svg id="Layer_1" data-name="Layer 1" xmlns="http://www.w3.org/2000/svg" viewBox="0 0 113.71 113.71"><title>Web Icons</title><path d="M32.93,0a1.43,1.43,0,0,1,1.22.91L35.93,7a22.94,22.94,0,0,1,3.83,1.62l5.61-3.12a1.3,1.3,0,0,1,1.5.24l5.49,5.45a1.3,1.3,0,0,1,.2,1.54l-3.12,5.61a22.82,22.82,0,0,1,1.62,3.83l6.16,1.74a1.3,1.3,0,0,1,.91,1.22v7.78a1.3,1.3,0,0,1-.91,1.22L51,35.93a22.85,22.85,0,0,1-1.58,3.79l3.12,5.65a1.3,1.3,0,0,1-.2,1.5l-5.49,5.49a1.3,1.3,0,0,1-1.5.2l-5.61-3.12A23,23,0,0,1,35.93,51l-1.78,6.16a1.3,1.3,0,0,1-1.22.95H25.19A1.3,1.3,0,0,1,24,57.17L22.19,51a23,23,0,0,1-3.83-1.58l-5.61,3.12a1.3,1.3,0,0,1-1.5-.2L5.76,46.87a1.3,1.3,0,0,1-.2-1.5l3.12-5.65a22.85,22.85,0,0,1-1.58-3.79L.91,34.15A1.3,1.3,0,0,1,0,32.93V25.15a1.3,1.3,0,0,1,.91-1.22l6.16-1.74a22.82,22.82,0,0,1,1.62-3.83L5.57,12.75a1.3,1.3,0,0,1,.2-1.54l5.49-5.45a1.3,1.3,0,0,1,1.5-.24l5.61,3.12A22.94,22.94,0,0,1,22.19,7L24,.91A1.3,1.3,0,0,1,25.19,0ZM32,2.53H26.1l-1.62,5.8a1.29,1.29,0,0,1-.91.87,20.36,20.36,0,0,0-4.66,2,1.29,1.29,0,0,1-1.22,0l-5.33-3L8.21,12.36l3,5.29a1.29,1.29,0,0,1,0,1.26,20.25,20.25,0,0,0-1.93,4.66,1.29,1.29,0,0,1-.87.87L2.53,26.1V32l5.84,1.66a1.29,1.29,0,0,1,.87.87,20.54,20.54,0,0,0,1.93,4.7,1.29,1.29,0,0,1,0,1.22L8.25,45.76l4.11,4.11,5.33-3a1.29,1.29,0,0,1,1.22,0,20.24,20.24,0,0,0,4.66,1.93,1.29,1.29,0,0,1,.91.87l1.66,5.84H32l1.66-5.84a1.29,1.29,0,0,1,.91-.87,20.24,20.24,0,0,0,4.66-1.93,1.29,1.29,0,0,1,1.22,0l5.33,3,4.11-4.11-2.92-5.33a1.29,1.29,0,0,1,0-1.22,20.55,20.55,0,0,0,1.93-4.7,1.29,1.29,0,0,1,.87-.87L55.59,32V26.1l-5.84-1.66a1.29,1.29,0,0,1-.87-.87,20.25,20.25,0,0,0-1.93-4.66,1.29,1.29,0,0,1,0-1.26l3-5.29L45.76,8.21l-5.33,3a1.29,1.29,0,0,1-1.22,0,20.36,20.36,0,0,0-4.66-2,1.29,1.29,0,0,1-.91-.87Zm-3,15.16A11.37,11.37,0,1,1,17.69,29.06,11.39,11.39,0,0,1,29.06,17.69Zm0,2.53a8.84,8.84,0,1,0,8.84,8.84A8.83,8.83,0,0,0,29.06,20.22ZM84.18,45.48a1.32,1.32,0,0,1,1.22.91l2.13,7.42a26.78,26.78,0,0,1,4.7,1.93L99,52a1.3,1.3,0,0,1,1.5.24L107,58.71a1.3,1.3,0,0,1,.2,1.5l-3.71,6.71a26.87,26.87,0,0,1,2,4.74l7.38,2.09a1.3,1.3,0,0,1,.91,1.22v9.2a1.3,1.3,0,0,1-.91,1.22l-7.38,2.09a26.85,26.85,0,0,1-2,4.74l3.75,6.71a1.3,1.3,0,0,1-.2,1.54L100.48,107a1.3,1.3,0,0,1-1.5.2l-6.75-3.75a26.89,26.89,0,0,1-4.7,2l-2.13,7.38a1.3,1.3,0,0,1-1.22.95H75a1.3,1.3,0,0,1-1.22-.95l-2.13-7.38a26.89,26.89,0,0,1-4.7-2l-6.75,3.75a1.3,1.3,0,0,1-1.5-.2l-6.48-6.48a1.3,1.3,0,0,1-.2-1.54l3.75-6.71a26.85,26.85,0,0,1-2-4.74L46.39,85.4a1.3,1.3,0,0,1-.91-1.22V75a1.3,1.3,0,0,1,.91-1.22l7.38-2.09a26.87,26.87,0,0,1,2-4.74L52,60.21a1.3,1.3,0,0,1,.2-1.5l6.48-6.48a1.3,1.3,0,0,1,1.5-.24L67,55.75a26.78,26.78,0,0,1,4.7-1.93l2.13-7.42A1.3,1.3,0,0,1,75,45.48ZM83.27,48H75.92l-2,7a1.29,1.29,0,0,1-.87.87,24.59,24.59,0,0,0-5.61,2.33,1.29,1.29,0,0,1-1.22,0l-6.44-3.55-5.13,5.13,3.59,6.44a1.29,1.29,0,0,1,0,1.22A24.29,24.29,0,0,0,55.95,73a1.29,1.29,0,0,1-.87.87l-7.07,2v7.3l7.07,2a1.29,1.29,0,0,1,.87.87,24.29,24.29,0,0,0,2.33,5.57,1.29,1.29,0,0,1,0,1.26l-3.55,6.44,5.09,5.09,6.44-3.55a1.29,1.29,0,0,1,1.22,0,24.58,24.58,0,0,0,5.61,2.33,1.29,1.29,0,0,1,.87.87l2,7.07h7.26l2-7.07a1.29,1.29,0,0,1,.87-.87,24.58,24.58,0,0,0,5.61-2.33,1.29,1.29,0,0,1,1.22,0l6.44,3.55,5.09-5.09-3.55-6.44a1.29,1.29,0,0,1,0-1.26,24.28,24.28,0,0,0,2.33-5.57,1.29,1.29,0,0,1,.87-.87l7.07-2v-7.3l-7.07-2a1.29,1.29,0,0,1-.87-.87,24.29,24.29,0,0,0-2.33-5.57,1.29,1.29,0,0,1,0-1.22l3.59-6.44-5.13-5.13-6.44,3.55a1.29,1.29,0,0,1-1.22,0,24.59,24.59,0,0,0-5.61-2.33,1.29,1.29,0,0,1-.87-.87ZM79.6,65.7A13.9,13.9,0,1,1,65.7,79.6,13.92,13.92,0,0,1,79.6,65.7Zm0,2.53A11.37,11.37,0,1,0,91,79.6,11.35,11.35,0,0,0,79.6,68.23Z"/></svg>