<svg id="Layer_1" data-name="Layer 1" xmlns="http://www.w3.org/2000/svg" viewBox="0 0 112.7 112.7"><defs><style>.cls-1{fill:none;stroke:#000;stroke-miterlimit:10;stroke-width:2px;}</style></defs><title>Web Icons</title><path class="cls-1" d="M100.63,1H12.07A11.07,11.07,0,0,0,1,12.07v88.56A11.07,11.07,0,0,0,12.07,111.7h88.56a11.07,11.07,0,0,0,11.07-11.07V12.07A11.07,11.07,0,0,0,100.63,1ZM12.09,7.57a4.26,4.26,0,1,1-4.26,4.26A4.27,4.27,0,0,1,12.09,7.57Zm0,97.57a4.26,4.26,0,1,1,4.26-4.26A4.27,4.27,0,0,1,12.09,105.13Zm88.53,0a4.26,4.26,0,1,1,4.26-4.26A4.27,4.27,0,0,1,100.62,105.13Zm0-88.43a4.26,4.26,0,1,1,4.26-4.26A4.27,4.27,0,0,1,100.62,16.71Z"/><path d="M27.23,29a4.26,4.26,0,0,0,2.29-.64c2.36,1.65,12.3,8.59,13.59,9.38a7.15,7.15,0,0,0,3.65,1.43c.72,0,2.29.07,4.72.07a3.14,3.14,0,0,0,2.79,1.72,3.15,3.15,0,1,0-3.08-3.79c-2.22,0-3.72,0-4.36-.07A4.35,4.35,0,0,1,44.25,36c-1.14-.72-10.66-7.38-13.23-9.16a4.61,4.61,0,0,0,.5-2,4.23,4.23,0,0,0-4.22-4.22,4.27,4.27,0,0,0-4.22,4.22A4.11,4.11,0,0,0,27.23,29Zm0-6.37a2.07,2.07,0,1,1-2.07,2.07A2.08,2.08,0,0,1,27.23,22.58Z"/><path d="M21,49.49H39.67a3.1,3.1,0,0,0,2.93,2.07,3.15,3.15,0,0,0,0-6.29,3.1,3.1,0,0,0-2.93,2.07H21a4.29,4.29,0,0,0-4.08-3.15,4.23,4.23,0,0,0-4.22,4.22,4.27,4.27,0,0,0,4.22,4.22A4,4,0,0,0,21,49.49Zm-6.15-1.07a2.07,2.07,0,1,1,2.07,2.07A2,2,0,0,1,14.85,48.42Z"/><path d="M25.22,60.79a4.23,4.23,0,0,0,4.08-3.15H39.67a3.1,3.1,0,0,0,2.93,2.07,3.15,3.15,0,0,0,0-6.29,3.1,3.1,0,0,0-2.93,2.07H29.3a4.29,4.29,0,0,0-4.08-3.15,4.22,4.22,0,0,0,0,8.44Zm0-6.37a2.07,2.07,0,1,1-2.07,2.07A2.08,2.08,0,0,1,25.22,54.42Z"/><path d="M30.23,81.39V69.87c0-3.36,1.14-4.08,3.08-4.08,2.36,0,5,0,6.15.07a3.12,3.12,0,0,0,3,2.07,3.15,3.15,0,0,0,0-6.29,3.1,3.1,0,0,0-2.93,2.07c-1.22,0-3.86-.07-6.15-.07-5.29,0-5.29,4.65-5.29,6.22V81.32a4.29,4.29,0,0,0-3.29,4.15A4.23,4.23,0,0,0,29,89.69a4.27,4.27,0,0,0,4.22-4.22A4.08,4.08,0,0,0,30.23,81.39ZM29,87.54a2.07,2.07,0,1,1,2.07-2.07A2,2,0,0,1,29,87.54Z"/><path d="M88.6,80.25V69.87c0-1.5,0-6.22-5.22-6.22-2.36,0-5,0-6.15.07a3.1,3.1,0,0,0-2.93-2.07,3.15,3.15,0,1,0,0,6.29,3.26,3.26,0,0,0,3-2.07c1.22,0,3.86-.07,6.15-.07,1.93,0,3.08.64,3.08,4.08V80.32a4.23,4.23,0,0,0,1.14,8.3,4.24,4.24,0,0,0,.93-8.37Zm-.93,6.22a2.07,2.07,0,1,1,2.07-2.07A2.08,2.08,0,0,1,87.67,86.47Z"/><path d="M74.58,51.56a3.14,3.14,0,0,0,2.79-1.72h5.22c4.86,0,4.86-4.29,4.86-5.72V23.81a4,4,0,1,0-4.86-3.86,3.93,3.93,0,0,0,2.79,3.79V44.12c0,3-.93,3.58-2.72,3.58H77.73a3.14,3.14,0,0,0-6.22.64A3,3,0,0,0,74.58,51.56ZM84.66,20a1.79,1.79,0,1,1,1.79,1.79A1.82,1.82,0,0,1,84.66,20Z"/><path d="M74.36,59.93a3.1,3.1,0,0,0,2.93-2.07H90.24A4.29,4.29,0,0,0,94.32,61a4.22,4.22,0,1,0-4.08-5.29H77.37a3.1,3.1,0,0,0-2.93-2.07,3.18,3.18,0,0,0-3.15,3.15A3.11,3.11,0,0,0,74.36,59.93Zm20-5.22a2.07,2.07,0,1,1-2.07,2.07A2,2,0,0,1,94.39,54.71Z"/><path class="cls-1" d="M53.43,44.86a3.92,3.92,0,0,0-3.93,3.93v16a3.92,3.92,0,0,0,3.93,3.93H63.54a3.92,3.92,0,0,0,3.93-3.93v-16a3.92,3.92,0,0,0-3.93-3.93Z"/><path d="M48.18,24.87a4.23,4.23,0,0,0,4.08-3.08h7.15c.79,0,1.5,0,1.79.29s.36.5.36,1.43c0,1.29,0,9.88-.07,11.24a3.21,3.21,0,0,0-2,2.93,3.15,3.15,0,1,0,4.08-3c0-1.36.07-9.88.07-11.17a3.8,3.8,0,0,0-.93-2.93c-.93-.93-2.15-.86-3.29-.86H52.33a4.23,4.23,0,1,0-4.15,5.15Zm0-6.37a2.07,2.07,0,1,1-2.07,2.07A2.12,2.12,0,0,1,48.18,18.51Z"/><path d="M54.26,72.81a3.09,3.09,0,0,0-2.86,1.86H43.46c-1.5,0-4.65,0-4.65,4.22v9.69a4.21,4.21,0,0,0,1,8.3A4.27,4.27,0,0,0,44,92.66,4.23,4.23,0,0,0,41,88.58c0-.43-.07-9.19-.07-9.69,0-1.93.64-2.07,2.5-2.07h7.8a3.07,3.07,0,0,0,3,2.29A3.18,3.18,0,0,0,57.34,76,3.07,3.07,0,0,0,54.26,72.81ZM41.89,92.73a2.07,2.07,0,1,1-2.07-2.07A2,2,0,0,1,41.89,92.73Z"/><path d="M74.58,88.62V78.89c0-4.22-3.15-4.22-4.65-4.22H65.57a3.06,3.06,0,0,0-2.86-1.86,3.15,3.15,0,1,0,3,4h4.22c1.86,0,2.5.14,2.5,2.07,0,.5,0,9.3-.07,9.73a4.23,4.23,0,1,0,5.36,4.08A4.07,4.07,0,0,0,74.58,88.62Zm-1,6.22a2.08,2.08,0,0,1-2.07-2.07,2.14,2.14,0,0,1,2.07-2.15,2.08,2.08,0,0,1,2.07,2.07A2.14,2.14,0,0,1,73.58,94.84Z"/></svg>